<?xml version="1.0" standalone="no"?>
<!DOCTYPE svg PUBLIC "-//W3C//DTD SVG 20010904//EN"
 "http://www.w3.org/TR/2001/REC-SVG-20010904/DTD/svg10.dtd">
<svg version="1.0" xmlns="http://www.w3.org/2000/svg"
 width="512.000000pt" height="512.000000pt" viewBox="0 0 512.000000 512.000000"
 preserveAspectRatio="xMidYMid meet">

<g transform="translate(0.000000,512.000000) scale(0.100000,-0.100000)"
fill="#000000" stroke="none">
<path d="M2410 4064 c-598 -73 -1085 -462 -1280 -1022 -18 -51 -31 -94 -29
-96 2 -1 31 -15 64 -31 160 -77 259 -266 227 -438 -25 -133 -123 -260 -236
-308 -55 -22 -56 -24 -50 -53 3 -17 24 -78 47 -135 124 -314 351 -579 650
-757 153 -91 376 -167 561 -193 99 -14 312 -14 413 0 154 21 344 79 472 144
28 14 53 25 56 25 3 0 5 -38 5 -85 l0 -85 395 0 396 0 -3 848 c-3 835 -4 849
-26 955 -130 619 -585 1078 -1197 1207 -97 20 -376 35 -465 24z m393 -821
c110 -39 181 -81 268 -161 218 -201 293 -502 195 -784 -37 -106 -82 -174 -181
-273 -104 -105 -203 -161 -345 -196 -118 -30 -280 -23 -395 15 -223 75 -400
253 -472 473 -37 113 -43 287 -15 401 56 221 191 387 397 487 121 59 201 76
345 71 96 -3 129 -8 203 -33z"/>
<path d="M862 2789 c-103 -51 -152 -133 -152 -253 1 -190 187 -314 375 -249
56 19 121 79 150 138 27 56 32 154 11 210 -29 75 -69 120 -137 154 -86 43
-161 43 -247 0z"/>
</g>
</svg>
