<?xml version="1.0" encoding="UTF-8" standalone="no"?>
<svg
   version="1.0"
   width="512.000000pt"
   height="512.000000pt"
   viewBox="0 0 512.000000 512.000000"
   preserveAspectRatio="xMidYMid meet"
   id="svg2"
   sodipodi:docname="AvaVKPlayer.svg"
   xml:space="preserve"
   inkscape:version="1.3-beta (cedbd6c6ff, 2023-05-28)"
   inkscape:export-filename="AvaVKPlayer.png"
   inkscape:export-xdpi="5.9699998"
   inkscape:export-ydpi="5.9699998"
   xmlns:inkscape="http://www.inkscape.org/namespaces/inkscape"
   xmlns:sodipodi="http://sodipodi.sourceforge.net/DTD/sodipodi-0.dtd"
   xmlns:xlink="http://www.w3.org/1999/xlink"
   xmlns="http://www.w3.org/2000/svg"
   xmlns:svg="http://www.w3.org/2000/svg"><defs
     id="defs2"><linearGradient
       id="linearGradient11"
       inkscape:collect="always"><stop
         style="stop-color:#3f85d4;stop-opacity:1;"
         offset="0"
         id="stop12" /><stop
         style="stop-color:#2a6fbd;stop-opacity:1;"
         offset="0.29535544"
         id="stop13" /><stop
         style="stop-color:#2a6fbd;stop-opacity:1;"
         offset="1"
         id="stop11" /></linearGradient><linearGradient
       inkscape:collect="always"
       xlink:href="#linearGradient11"
       id="linearGradient12"
       x1="348.57855"
       y1="263.44254"
       x2="482.22916"
       y2="472.35303"
       gradientUnits="userSpaceOnUse"
       gradientTransform="matrix(0.99880846,0,0,1,0.39441367,-702.51532)" /></defs><sodipodi:namedview
     id="namedview2"
     pagecolor="#ffffff"
     bordercolor="#999999"
     borderopacity="1"
     inkscape:showpageshadow="2"
     inkscape:pageopacity="0"
     inkscape:pagecheckerboard="0"
     inkscape:deskcolor="#d1d1d1"
     inkscape:document-units="pt"
     showguides="true"
     inkscape:zoom="0.70710678"
     inkscape:cx="207.18229"
     inkscape:cy="410.82904"
     inkscape:window-width="1920"
     inkscape:window-height="1017"
     inkscape:window-x="-8"
     inkscape:window-y="-8"
     inkscape:window-maximized="1"
     inkscape:current-layer="layer1" /><g
     inkscape:groupmode="layer"
     id="layer1"
     inkscape:label="Layer 1"><path
       id="path11"
       style="opacity:1;fill:#ffffff;fill-opacity:1;fill-rule:evenodd;stroke:#d2d2d2;stroke-width:5.4428;stroke-linecap:round;stroke-dasharray:none;stroke-opacity:1;paint-order:stroke fill markers"
       d="M 443.14328,254.7082 C 433.89825,463.42005 478.19232,449.18402 252.95979,444.89169 147.94343,442.89036 62.776326,359.74364 62.776326,254.7082 c 0,-105.03543 85.148054,-190.183461 190.183464,-190.183471 105.03544,0 194.83155,85.250931 190.18349,190.183471 z"
       sodipodi:nodetypes="sssss" /><path
       d="m 250.65674,105.22998 c -4.01875,-0.0172 -7.43125,0.0956 -9.65625,0.37061 -59.8,7.29999 -108.50097,46.19922 -128.00097,102.19922 -1.8,5.1 -3.09894,9.40058 -2.89893,9.60058 -0.29302,1.39143 -0.51561,2.75573 -0.77198,4.13379 -2.87079,32.39164 -3.16887,35.72757 -0.59911,69.12159 0.95227,5.77748 1.81332,9.46725 1.8706,9.74413 0.3,1.7 2.39922,7.8 4.69922,13.5 12.4,31.4 35.10097,57.9002 65.00097,75.7002 15.3,9.1 37.59912,16.69931 56.09913,19.29932 9.9,1.4 31.20126,1.4 41.30127,0 15.39999,-2.1 34.39872,-7.89942 47.19873,-14.39942 2.79999,-1.4 5.3001,-2.50048 5.6001,-2.50048 0.3,0 0.50097,3.80048 0.50097,8.50048 v 8.50049 H 370.5 410.10059 l -0.3003,-84.7998 c -0.3,-83.50001 -0.40009,-84.90049 -2.6001,-95.5005 C 394.2002,166.8002 348.70049,120.9 287.50049,108 c -7.275,-1.5 -24.78751,-2.71846 -36.84375,-2.77002 z"
       style="fill:#2a6fbd;stroke:#01d8ff;stroke-width:0"
       id="path7"
       sodipodi:nodetypes="scccccccccccssccccccs" /><rect
       style="opacity:1;fill:url(#linearGradient12);fill-rule:evenodd;stroke:none;stroke-width:43.0816;stroke-linecap:round;stroke-dasharray:none;stroke-opacity:1;paint-order:stroke fill markers"
       id="rect11"
       width="78.585991"
       height="115.49164"
       x="330.99814"
       y="-409.00348"
       transform="scale(1,-1)" /><path
       d="m 154.5954,201.98583 0.18374,3.43795 c 0.15627,3.32711 0.3399,6.41442 0.55883,9.33135 0.21892,2.91691 0.47212,5.66288 0.76837,8.30635 0.29625,2.64345 0.63527,5.1846 1.0235,7.69133 0.3882,2.50674 0.82626,4.97961 1.32111,7.48633 0.46879,2.3928 0.97997,4.74174 1.53371,7.04749 0.55373,2.30577 1.14952,4.56737 1.78882,6.78783 0.6393,2.22044 1.32151,4.39886 2.04697,6.53574 0.72547,2.13689 1.4944,4.23319 2.30665,6.28821 0.81225,2.05504 1.6682,4.06883 2.56783,6.04374 0.89964,1.97493 1.84291,3.91033 2.83054,5.80686 0.98763,1.89652 2.02002,3.75464 3.09627,5.5745 1.07625,1.81989 2.19655,3.6018 3.36203,5.34674 1.21592,1.82472 2.47734,3.59457 3.78416,5.3103 1.30684,1.71573 2.6596,3.3777 4.05599,4.9838 1.39639,1.60611 2.83707,3.15694 4.32174,4.65279 1.48465,1.49581 3.01283,2.93681 4.58442,4.32171 1.5716,1.38491 3.1869,2.71432 4.8441,3.98766 1.65721,1.27333 3.35621,2.48941 5.0977,3.65053 1.74149,1.16114 3.52533,2.2667 5.34978,3.31496 1.82445,1.04824 3.68968,2.04006 5.59578,2.97479 1.90609,0.93474 3.8523,1.81256 5.83872,2.63312 1.98641,0.82058 4.01326,1.58419 6.07866,2.28994 2.06543,0.70577 4.16945,1.35343 6.31254,1.94372 2.14308,0.59029 4.32541,1.1233 6.54485,1.5975 2.21943,0.47418 4.47664,0.88928 6.77111,1.24669 2.29446,0.35743 4.62616,0.65593 6.99434,0.89594 2.36816,0.24002 4.77245,0.42168 7.21301,0.54363 2.44054,0.12195 4.917,0.18505 7.42864,0.1883 h 3.56852 v -23.25776 -23.25778 l 1.87387,0.20956 c 0.87248,0.10418 1.76726,0.24009 2.67717,0.40545 0.9099,0.16537 1.83545,0.35962 2.76978,0.5816 1.86867,0.44397 3.77289,0.99704 5.66107,1.64 1.8882,0.64297 3.76035,1.37529 5.5639,2.18062 0.90176,0.40265 1.78722,0.82399 2.64831,1.26037 0.86108,0.43639 1.69821,0.88899 2.50556,1.35453 1.06781,0.6218 2.1302,1.29115 3.18284,2.00446 1.05264,0.7133 2.09529,1.46986 3.12361,2.26565 1.02833,0.79576 2.04219,1.63031 3.03706,2.49949 0.99486,0.86916 1.97093,1.7725 2.92316,2.70601 0.95224,0.93352 1.87998,1.89791 2.78042,2.88672 0.90045,0.98881 1.77389,2.00201 2.6134,3.03707 0.8395,1.03502 1.64505,2.09084 2.41445,3.16308 0.76942,1.07223 1.50259,2.16145 2.19275,3.26179 0.55343,0.88549 1.14214,1.90526 1.73871,2.9991 0.59658,1.09384 1.20003,2.26204 1.78276,3.44704 0.58273,1.18501 1.14479,2.38681 1.65671,3.54577 0.51193,1.15896 0.97493,2.27493 1.35908,3.29066 l 1.38034,3.64598 18.49111,0.0774 c 5.78177,0.013 10.40998,0.006 13.59386,-0.0228 3.18389,-0.0293 4.92307,-0.0812 4.92307,-0.15944 0,-0.18229 -0.13074,-0.707 -0.34927,-1.45172 -0.21852,-0.74467 -0.52449,-1.7087 -0.8777,-2.76674 -0.70644,-2.11606 -1.59931,-4.61048 -2.34158,-6.48563 -0.8334,-2.10306 -1.72864,-4.16878 -2.68475,-6.19711 -0.9561,-2.02834 -1.97244,-4.01867 -3.04921,-5.96933 -1.07674,-1.95066 -2.21371,-3.86241 -3.40908,-5.73244 -1.19539,-1.87003 -2.44942,-3.69847 -3.76141,-5.48493 -1.31195,-1.78645 -2.68108,-3.52988 -4.1076,-5.2298 -1.42652,-1.69993 -2.91025,-3.35666 -4.4493,-4.96711 -1.53903,-1.61046 -3.13383,-3.17574 -4.78335,-4.69377 -1.64952,-1.51803 -3.35339,-2.98866 -5.11137,-4.41132 -1.24359,-1.00919 -2.56522,-2.02209 -3.92234,-3.00972 -1.35715,-0.98763 -2.74975,-1.94947 -4.13497,-2.85939 -1.3852,-0.90991 -2.76306,-1.7675 -4.0909,-2.54353 -1.32784,-0.77604 -2.60677,-1.47009 -3.79177,-2.05609 -1.25011,-0.62502 -2.26564,-1.19912 -2.26564,-1.27707 0.0261,-0.0782 1.35399,-0.99006 2.96872,-2.0318 1.08083,-0.69993 2.15346,-1.42979 3.21472,-2.18971 1.06128,-0.75993 2.11215,-1.54967 3.15094,-2.36587 1.03882,-0.81621 2.06613,-1.65956 3.07957,-2.52835 1.01347,-0.86878 2.01239,-1.76256 2.99758,-2.6802 0.9852,-0.91764 1.95547,-1.85864 2.9095,-2.82142 0.95404,-0.96278 1.89233,-1.9478 2.81233,-2.95202 0.91997,-1.00422 1.82146,-2.02853 2.70449,-3.07046 0.88302,-1.04194 1.74743,-2.10082 2.59061,-3.17676 0.84316,-1.07594 1.66566,-2.16772 2.46607,-3.27394 0.80044,-1.10625 1.57922,-2.22769 2.33399,-3.3605 0.75476,-1.13282 1.48502,-2.27773 2.19124,-3.4334 0.7062,-1.15569 1.38764,-2.32234 2.04241,-3.49716 0.65476,-1.17484 1.28409,-2.35702 1.88449,-3.54729 0.60041,-1.19026 1.17279,-2.38781 1.71594,-3.58979 0.54315,-1.20201 1.05677,-2.40866 1.53979,-3.61865 0.48301,-1.21002 0.93457,-2.42408 1.35452,-3.6384 0.74225,-2.16164 1.58243,-5.02603 2.2368,-7.51974 0.32717,-1.24686 0.60734,-2.40163 0.80634,-3.32862 0.19898,-0.92701 0.31736,-1.62641 0.31736,-1.96497 0,-0.0911 -1.36799,-0.14968 -4.15469,-0.18223 -2.7867,-0.0326 -6.993,-0.0389 -12.67059,-0.0258 l -16.82376,0.0774 -1.35454,3.90716 c -0.72923,2.10956 -1.32841,3.71707 -1.98926,5.28296 -0.66087,1.5659 -1.38315,3.09062 -2.3598,5.03089 -0.61204,1.22568 -1.25392,2.43248 -1.92244,3.62017 -0.66853,1.18767 -1.36457,2.35604 -2.08495,3.50173 -0.72038,1.14566 -1.46463,2.26992 -2.23223,3.3696 -0.76762,1.09969 -1.55869,2.17413 -2.36891,3.22384 -0.81022,1.04969 -1.63916,2.07322 -2.48733,3.06894 -0.8482,0.99572 -1.71516,1.96417 -2.59669,2.9019 -0.88154,0.93775 -1.77908,1.84545 -2.68931,2.72121 -0.91026,0.87577 -1.83244,1.72006 -2.76677,2.52986 -0.93433,0.80981 -1.87978,1.58501 -2.83357,2.32487 -0.95378,0.73984 -1.9166,1.44334 -2.8852,2.10923 -0.96862,0.66591 -1.94283,1.29501 -2.92165,1.88298 -0.97881,0.58795 -1.96157,1.1355 -2.94595,1.64153 -0.98438,0.50602 -1.97125,0.96935 -2.95657,1.38945 -0.98532,0.4201 -1.97038,0.79656 -2.95201,1.12674 -0.98164,0.33018 -1.95896,0.61411 -2.93228,0.85038 -0.97332,0.23626 -1.94152,0.42502 -2.9019,0.56337 l -1.24976,0.18223 v -25.67969 -25.67828 h -16.79946 -16.79795 l -0.0516,45.0289 -0.0791,45.05622 -2.86395,-0.98857 c -0.82038,-0.27998 -1.63493,-0.58418 -2.44178,-0.91263 -0.80687,-0.32845 -1.60696,-0.6822 -2.39928,-1.05842 -0.7923,-0.37621 -1.57698,-0.77637 -2.35372,-1.19962 -0.77675,-0.42328 -1.54496,-0.86974 -2.30511,-1.33935 -1.52033,-0.93921 -3.00597,-1.96991 -4.45385,-3.0902 -1.44789,-1.1203 -2.85876,-2.32905 -4.22607,-3.62472 -1.00921,-0.9555 -1.99144,-1.95151 -2.94746,-2.98696 -0.956,-1.03544 -1.88581,-2.11158 -2.78801,-3.22536 -0.9022,-1.11375 -1.77622,-2.26571 -2.62402,-3.45614 -0.84781,-1.19047 -1.66871,-2.41849 -2.46154,-3.68396 -0.79281,-1.26548 -1.55878,-2.5683 -2.296,-3.90718 -0.73723,-1.33885 -1.44643,-2.71369 -2.12747,-4.12431 -0.68102,-1.41063 -1.33312,-2.8577 -1.95738,-4.33844 -0.62424,-1.48073 -1.22044,-2.99574 -1.7873,-4.54494 -0.56686,-1.54922 -1.10379,-3.1324 -1.61267,-4.74845 -0.50889,-1.61605 -0.98928,-3.2646 -1.43958,-4.94583 -0.45029,-1.68125 -0.87076,-3.39544 -1.26189,-5.14022 -0.39113,-1.74479 -0.75289,-3.5203 -1.08422,-5.327 -0.33135,-1.8067 -0.63255,-3.64377 -0.90353,-5.51073 -0.27098,-1.86697 -0.5113,-3.76432 -0.7213,-5.68993 -0.20999,-1.9256 -0.39063,-3.87892 -0.53908,-5.8615 -0.14844,-1.98261 -0.26451,-3.99367 -0.35078,-6.0316 L 190.51,201.98589 h -17.94293 z"
       style="fill:#ffffff;fill-rule:evenodd;stroke-width:9.72776"
       id="path10" /><path
       d="m 84.329776,218.91185 c -0.72694,0.004 -1.310431,0.13658 -1.728551,0.41283 -6.689919,4.42008 -6.685201,68.77549 0.0045,73.13181 6.689639,4.35632 55.656535,-27.7719 55.710465,-36.51442 0.0506,-8.1961 -43.082269,-37.09219 -53.986354,-37.03022 z"
       style="opacity:1;fill:#8b44ac;fill-rule:evenodd;stroke:#ffffff;stroke-width:31;stroke-linecap:round;stroke-dasharray:none;stroke-opacity:1;paint-order:stroke fill markers"
       id="path6" /></g></svg>
