<?xml version="1.0" standalone="no"?>
<!DOCTYPE svg PUBLIC "-//W3C//DTD SVG 20010904//EN"
 "http://www.w3.org/TR/2001/REC-SVG-20010904/DTD/svg10.dtd">
<svg version="1.0" xmlns="http://www.w3.org/2000/svg"
 width="1200.000000pt" height="1200.000000pt" viewBox="0 0 1200.000000 1200.000000"
 preserveAspectRatio="xMidYMid meet">

<g transform="translate(0.000000,1200.000000) scale(0.100000,-0.100000)"
fill="#000000" stroke="none">
<path d="M4315 11990 c-1232 -20 -1912 -90 -2445 -250 -664 -200 -1126 -569
-1419 -1131 -202 -388 -326 -906 -385 -1614 -52 -616 -60 -1021 -60 -3000 0
-2017 8 -2416 65 -3040 95 -1057 329 -1676 806 -2135 180 -173 338 -283 568
-395 480 -233 1103 -349 2129 -395 852 -39 4004 -39 4852 0 1032 47 1648 161
2129 395 231 112 389 222 568 394 557 537 778 1255 847 2756 38 829 38 4021 0
4850 -42 918 -136 1498 -317 1955 -230 585 -653 1017 -1230 1256 -504 210
-1140 306 -2273 345 -381 13 -3196 20 -3835 9z m-911 -3807 c53 -1252 413
-2236 1033 -2823 210 -199 446 -345 698 -431 l110 -38 3 1730 2 1729 645 0
645 0 0 -986 0 -986 48 7 c590 85 1255 661 1631 1414 75 149 111 234 167 396
l52 150 646 3 c436 1 646 -1 646 -8 0 -52 -72 -326 -129 -492 -258 -746 -833
-1480 -1497 -1910 -62 -40 -113 -75 -114 -78 0 -3 39 -25 87 -49 182 -90 421
-247 612 -402 540 -437 948 -993 1204 -1639 57 -144 137 -383 137 -411 0 -6
-267 -8 -711 -7 l-710 3 -53 140 c-59 156 -166 374 -251 510 -212 338 -527
647 -855 838 -248 143 -570 253 -838 285 l-72 8 0 -893 0 -893 -137 0 c-1543
2 -2740 589 -3487 1710 -358 536 -606 1163 -750 1898 -76 385 -117 749 -141
1260 l-7 132 690 0 689 0 7 -167z"/>
</g>
</svg>
